<?xml version="1.0" standalone="no"?>
<!DOCTYPE svg PUBLIC "-//W3C//DTD SVG 20010904//EN"
 "http://www.w3.org/TR/2001/REC-SVG-20010904/DTD/svg10.dtd">
<svg version="1.0" xmlns="http://www.w3.org/2000/svg"
 width="500.000000pt" height="500.000000pt" viewBox="0 0 500.000000 500.000000"
 preserveAspectRatio="xMidYMid meet">

<g transform="translate(0.000000,500.000000) scale(0.100000,-0.100000)"
fill="#000000" stroke="none">
<path d="M2410 4371 c-30 -16 -58 -27 -62 -24 -5 2 -8 -1 -8 -6 0 -15 5 -14
50 9 42 22 75 26 65 9 -4 -5 -17 -15 -28 -20 -45 -21 -72 -39 -57 -39 36 -1
-96 -64 -210 -100 -162 -52 -270 -70 -458 -77 -84 -3 -155 -10 -158 -15 -16
-25 375 2 611 43 40 7 68 7 85 0 14 -5 19 -10 11 -10 -7 -1 -11 -7 -7 -16 3
-10 -1 -15 -12 -16 -14 0 -14 -2 3 -9 14 -6 15 -9 5 -10 -12 0 -11 -3 3 -11
15 -9 16 -12 2 -25 -18 -18 -19 -30 -5 -39 8 -5 7 -11 -1 -21 -8 -10 -8 -14 0
-14 21 0 11 -40 -11 -50 -21 -8 -21 -9 -3 -9 14 -1 16 -4 8 -12 -6 -6 -9 -18
-6 -25 4 -10 -4 -14 -23 -15 -24 -1 -25 -2 -6 -6 12 -2 22 -8 22 -13 0 -9
-140 -56 -335 -115 -130 -40 -181 -69 -152 -87 18 -12 27 -10 27 7 0 8 11 22
24 30 22 15 27 15 55 1 19 -10 32 -12 36 -6 8 12 45 13 45 1 0 -5 7 -11 14
-14 10 -4 13 -1 9 9 -3 9 2 14 16 14 12 0 21 -5 21 -11 0 -5 -5 -7 -11 -4 -6
4 -5 -2 3 -14 16 -26 -3 -54 -24 -33 -8 8 -17 8 -30 1 -15 -8 -23 -7 -33 8 -7
10 -17 15 -21 10 -4 -4 -2 -7 5 -7 7 0 9 -4 6 -10 -3 -5 -2 -10 3 -10 5 0 25
-13 43 -30 19 -16 39 -30 44 -30 6 1 2 7 -7 14 -25 19 -22 24 9 18 21 -4 25
-2 20 12 -4 9 -2 26 2 38 9 22 9 22 17 4 15 -39 74 -82 74 -54 0 6 -7 8 -15 4
-8 -3 -15 0 -15 6 0 7 16 9 48 5 26 -2 39 -3 30 0 -25 6 -22 18 10 42 15 12
19 18 10 15 -10 -3 -18 -2 -18 4 0 5 -6 9 -12 8 -7 0 -14 4 -15 9 -2 6 5 10
15 10 9 0 22 3 27 6 8 6 41 6 66 0 8 -2 7 -31 -2 -31 -4 0 -10 6 -12 13 -3 6
-6 2 -6 -10 -1 -24 16 -40 30 -26 4 4 9 23 11 40 1 18 8 35 15 37 16 6 17 26
2 26 -5 0 -7 -4 -4 -10 3 -5 -3 -10 -15 -10 -18 0 -21 5 -18 33 3 31 4 32 50
31 26 0 45 3 42 8 -3 4 0 8 6 8 6 0 9 4 6 9 -3 5 5 11 19 13 26 5 35 -6 13
-15 -8 -4 -7 -6 3 -6 9 -1 20 9 24 22 4 14 8 18 12 9 3 -8 0 -19 -6 -25 -6 -6
-11 -23 -11 -38 0 -20 -6 -28 -24 -33 -14 -3 -32 -3 -42 1 -11 4 -15 3 -10 -5
3 -6 1 -14 -5 -18 -8 -4 -9 -3 -5 4 4 7 4 12 -1 12 -15 0 -43 -62 -43 -96 0
-20 -4 -33 -8 -30 -4 2 -14 0 -22 -6 -13 -8 -12 -9 2 -5 20 7 32 -29 12 -37
-16 -6 -29 10 -14 17 6 3 5 4 -2 3 -7 -2 -12 -11 -10 -21 2 -10 -1 -14 -7 -10
-6 3 -15 -4 -20 -17 -8 -20 -10 -21 -16 -5 -4 9 -14 17 -22 17 -8 0 -11 5 -8
10 4 6 11 8 16 4 5 -3 9 -2 8 3 -1 4 1 16 6 26 6 14 10 15 21 6 11 -9 14 -7
14 9 0 11 -8 22 -20 25 -11 3 -18 1 -15 -4 3 -5 1 -18 -5 -29 -9 -16 -15 -18
-29 -10 -14 7 -22 6 -30 -4 -13 -15 -48 -16 -59 -1 -4 6 -16 17 -26 25 -18 13
-19 13 -11 0 4 -8 15 -24 24 -35 15 -18 15 -19 0 -7 -14 10 -20 10 -33 -3 -13
-14 -22 -15 -50 -5 -19 6 -36 19 -39 30 -3 12 -14 20 -27 20 -13 0 -19 -4 -14
-12 4 -7 3 -8 -4 -4 -8 4 -9 18 -5 34 6 25 5 26 -12 12 -17 -14 -18 -13 -12 3
5 12 1 17 -13 17 -25 0 -26 -18 -2 -36 15 -12 15 -13 1 -14 -9 0 -21 10 -27
23 -6 12 -11 16 -11 9 -2 -25 20 -52 40 -52 24 0 303 -127 307 -141 2 -5 13
-9 25 -10 20 -1 20 -2 -3 -9 -23 -7 -23 -8 10 -10 22 -2 28 -4 15 -7 -31 -8
-38 -19 -20 -37 15 -15 15 -16 -7 -17 -39 -2 29 -16 85 -18 33 -1 47 -5 47
-15 0 -19 -22 -26 -81 -26 -27 0 -49 -4 -49 -8 0 -5 -23 -7 -51 -4 -36 3 -50
1 -45 -7 4 -6 4 -11 1 -11 -10 0 -35 28 -35 39 0 14 2 14 -93 -10 -107 -27
-137 -43 -137 -74 0 -13 5 -27 10 -30 6 -3 10 2 10 12 0 34 29 63 63 63 38 0
50 -7 66 -37 14 -28 14 -35 -3 -58 -13 -18 -14 -17 -9 10 5 25 3 28 -8 18 -13
-13 -38 -19 -26 -6 4 3 2 12 -4 20 -9 10 -15 11 -26 2 -11 -10 -11 -15 3 -30
10 -11 13 -19 8 -19 -5 0 -17 12 -25 26 l-16 27 -5 -32 c-3 -22 -1 -31 9 -31
8 0 11 -4 8 -10 -3 -5 58 -41 137 -79 79 -39 135 -70 125 -70 -10 -1 -15 -5
-12 -11 3 -5 0 -10 -7 -10 -7 -1 -2 -7 12 -15 19 -11 21 -14 8 -15 -10 0 -18
-4 -18 -10 0 -5 8 -10 18 -11 12 0 11 -3 -7 -10 -14 -6 -21 -15 -18 -23 3 -8
1 -17 -6 -20 -8 -3 -8 -5 2 -5 10 -1 11 -4 2 -15 -7 -8 -21 -12 -34 -8 -20 5
-20 4 -8 -11 12 -15 11 -17 -8 -17 -26 0 -27 -8 -3 -26 15 -12 12 -14 -23 -15
-35 -1 -37 -2 -15 -9 25 -8 24 -8 -5 -9 -20 -1 -26 -4 -17 -9 13 -9 6 -42 -9
-42 -4 0 -6 -7 -3 -15 5 -11 -1 -15 -20 -15 -14 0 -26 -4 -26 -9 0 -5 -8 -7
-19 -4 -25 6 -35 -11 -21 -37 18 -33 5 -23 -27 23 -80 112 -171 326 -219 515
-16 61 -32 112 -37 112 -8 0 -4 -24 23 -120 10 -36 20 -74 22 -85 2 -11 6 -23
10 -26 5 -3 9 -18 11 -35 2 -16 16 -59 32 -94 15 -36 32 -76 37 -90 14 -34 22
-50 82 -152 28 -48 56 -98 62 -109 6 -11 21 -31 33 -45 11 -13 21 -29 21 -34
0 -6 4 -10 9 -10 5 0 12 -8 15 -17 3 -10 25 -39 48 -64 24 -25 60 -64 80 -88
21 -23 42 -40 47 -36 5 3 21 -10 35 -28 14 -19 32 -34 39 -34 21 0 67 -34 60
-46 -4 -6 -1 -7 6 -3 7 5 20 1 29 -7 9 -8 33 -24 52 -35 19 -10 58 -33 87 -50
35 -21 53 -27 56 -19 3 7 -12 20 -32 30 -54 27 -116 71 -117 85 -3 25 -5 27
-15 12 -9 -13 -10 -13 -6 0 2 8 17 17 33 20 21 4 29 11 29 25 0 18 6 21 35 17
6 -1 10 -28 10 -60 0 -45 4 -63 19 -76 19 -17 20 -17 34 6 8 12 20 44 27 71
10 36 17 47 32 47 14 0 18 -5 14 -15 -3 -10 1 -15 12 -15 9 0 24 -5 32 -11 12
-8 10 -9 -7 -4 -12 3 -24 1 -28 -5 -3 -5 1 -10 10 -10 9 0 23 -6 30 -14 11
-11 7 -17 -25 -35 -22 -12 -42 -26 -45 -32 -11 -16 146 82 225 142 76 57 275
257 266 267 -3 3 -14 -6 -25 -19 l-19 -24 -7 28 c-5 20 -13 27 -31 27 -17 0
-24 6 -24 20 0 15 -7 20 -26 20 -30 0 -22 19 9 21 17 1 18 2 5 6 -22 6 -23 17
-2 37 14 15 13 17 -14 22 -21 4 -29 11 -25 20 3 8 0 14 -6 14 -6 0 -11 7 -11
15 0 10 10 15 30 15 17 0 30 5 30 10 0 6 -8 10 -18 10 -20 0 -55 37 -47 49 2
5 -10 12 -28 16 l-32 7 25 9 25 10 -25 14 c-14 8 -20 15 -15 15 6 0 3 5 -5 10
-13 8 -12 10 3 10 10 0 15 5 12 10 -4 6 -1 18 6 26 10 13 10 17 0 24 -9 5 -10
9 -2 14 6 4 9 12 5 17 -3 5 0 16 6 24 10 12 10 15 -1 15 -8 0 -9 3 -3 9 12 12
392 131 418 131 32 0 45 13 52 50 4 28 3 32 -6 18 -6 -10 -16 -18 -22 -18 -7
0 -7 4 1 14 15 18 -15 31 -35 15 -7 -6 -18 -7 -25 -3 -8 5 -10 -2 -7 -26 4
-28 3 -30 -7 -17 -7 9 -15 14 -18 10 -7 -6 8 51 17 66 3 5 -3 11 -14 14 -17 4
-19 1 -14 -18 4 -16 0 -24 -12 -29 -14 -5 -15 -9 -5 -15 10 -7 10 -9 -2 -14
-18 -7 -17 14 1 36 10 12 10 16 -2 20 -7 3 -18 1 -24 -5 -6 -6 -11 1 -14 21
-2 16 -1 28 4 25 4 -3 8 -1 8 4 0 12 -80 43 -91 36 -5 -3 -9 0 -9 7 0 8 -4 8
-15 -1 -14 -12 -20 -7 -15 15 1 5 -7 2 -18 -8 -10 -9 -32 -17 -48 -16 -16 0
-23 3 -16 6 6 2 12 16 12 29 0 14 -4 23 -9 20 -5 -4 -12 0 -15 6 -4 7 -4 3 -2
-9 2 -13 -1 -23 -7 -23 -19 0 -34 14 -38 34 -5 22 -35 44 -46 33 -4 -5 -1 -12
7 -17 11 -7 10 -9 -7 -7 -12 0 -20 4 -17 8 9 15 -17 20 -33 7 -12 -9 -15 -9
-9 0 5 8 -1 12 -19 12 -15 0 -24 -4 -20 -10 4 -6 3 -10 -2 -9 -4 1 -17 1 -28
0 -17 -1 -18 -3 -5 -11 13 -9 13 -10 0 -10 -12 -1 -11 -3 3 -11 18 -11 23 -29
7 -29 -5 0 -19 9 -31 21 -16 16 -23 18 -35 8 -15 -13 -20 1 -5 16 17 17 19 59
5 73 -12 11 -14 9 -14 -11 0 -16 -7 -26 -21 -30 -16 -4 -18 -3 -9 8 9 10 6 19
-9 34 l-21 21 -20 -20 -20 -20 20 -20 c11 -11 25 -20 30 -20 6 0 10 -4 10 -10
0 -5 -12 -10 -27 -10 -14 0 -23 3 -20 6 4 4 -2 19 -13 34 -11 16 -20 34 -21
42 0 7 -5 2 -10 -11 -11 -27 -4 -58 18 -83 11 -12 11 -18 2 -24 -7 -4 -10 -3
-6 3 7 11 -20 28 -37 24 -5 -1 -6 5 -3 14 4 8 3 15 -2 15 -5 0 -9 34 -10 75
l-2 75 33 1 c18 0 26 3 18 6 -8 4 -21 12 -28 20 -20 19 -40 0 -36 -35 4 -27 4
-27 -5 -2 -4 14 -4 29 1 35 15 17 8 26 -13 15 -15 -9 -19 -18 -15 -35 4 -14 0
-27 -9 -35 -19 -15 -10 -31 13 -24 10 4 13 3 6 -3 -6 -4 -10 -16 -8 -25 1 -10
-2 -18 -8 -18 -6 0 -7 7 -4 16 6 14 1 16 -31 9 -21 -3 -46 -7 -56 -6 -9 0 -15
-4 -12 -10 4 -5 1 -9 -6 -9 -7 0 -10 11 -7 30 3 17 1 27 -3 23 -4 -4 -9 -21
-12 -38 -4 -27 -4 -26 -6 8 0 20 -6 37 -12 37 -7 0 -10 -12 -7 -30 3 -16 1
-30 -4 -30 -4 0 -8 5 -8 11 0 5 -4 7 -10 4 -5 -3 -10 1 -10 9 0 8 -8 20 -17
25 -14 8 -15 10 -3 11 13 0 13 1 0 10 -8 5 -10 10 -5 10 6 0 3 5 -5 10 -8 5
-10 10 -4 10 6 0 17 -7 24 -15 16 -20 27 -19 33 3 4 16 5 16 6 0 1 -25 21 -22
21 3 0 12 4 17 11 14 6 -4 8 -13 5 -21 -3 -8 -2 -14 3 -14 5 0 12 10 16 23 7
21 8 20 14 -8 l7 -30 8 25 c4 14 8 28 7 33 -1 4 5 7 13 7 19 0 28 27 11 34 -8
3 -12 13 -10 23 3 10 -2 3 -10 -15 -9 -18 -20 -30 -25 -27 -6 4 -3 16 6 31 9
13 14 28 10 32 -4 3 -11 0 -16 -8 -8 -13 -10 -12 -10 2 0 29 37 42 81 28 21
-7 40 -19 43 -26 3 -8 12 -14 21 -14 8 0 23 -4 33 -9 60 -32 171 -78 176 -73
3 3 6 0 6 -6 0 -19 28 -14 34 6 6 16 94 58 103 48 8 -7 -27 -67 -43 -73 -7 -3
-14 -8 -14 -12 0 -10 151 -61 181 -61 22 0 22 0 3 15 -19 14 -18 15 4 21 18 5
20 9 10 15 -10 7 -9 9 4 9 11 0 15 5 12 15 -4 11 6 16 45 21 51 7 64 17 35 28
-8 3 -12 2 -9 -4 4 -6 -7 -11 -24 -12 -17 -1 -44 -2 -61 -3 -36 -2 -40 12 -5
21 14 3 25 12 25 19 0 19 -34 37 -137 75 -51 19 -93 37 -93 41 0 4 6 12 14 18
12 10 20 9 39 -4 22 -14 25 -14 31 0 3 8 11 14 18 13 7 -2 12 5 10 15 -2 9 2
17 8 17 5 0 10 -5 10 -11 0 -5 5 -7 10 -4 6 4 10 -9 11 -32 l1 -38 8 32 c4 18
12 39 19 46 6 8 8 17 4 20 -3 4 -1 7 5 7 7 0 12 5 12 10 0 6 -9 10 -20 10 -14
0 -18 -5 -13 -17 5 -13 2 -15 -11 -10 -10 4 -22 7 -27 7 -5 0 -9 5 -9 10 0 6
6 10 14 10 7 0 20 8 27 17 8 9 9 14 2 10 -6 -4 -14 -1 -16 5 -3 8 -6 6 -6 -5
-1 -10 -5 -15 -11 -12 -5 3 -7 20 -4 38 4 24 3 28 -5 17 -9 -13 -11 -12 -11 4
0 12 -5 16 -16 12 -9 -3 -17 -6 -20 -6 -2 0 -1 -8 3 -17 5 -15 3 -14 -10 2
-16 20 -16 20 -17 -1 0 -26 18 -44 47 -44 27 0 29 -6 8 -26 -11 -12 -19 -13
-36 -4 -11 6 -26 9 -33 7 -10 -4 -11 9 -4 57 12 87 11 86 50 72 18 -6 48 -20
67 -30 39 -21 190 -86 199 -86 3 0 -3 7 -14 15 -19 14 -19 14 1 15 l20 1 -20
9 c-19 8 -19 8 5 18 14 6 19 11 12 11 -7 1 -11 5 -8 10 4 5 0 12 -6 14 -7 3 3
6 22 7 34 1 34 2 10 12 -23 10 -23 11 -5 15 28 7 44 23 22 23 -9 0 -17 6 -17
14 0 9 9 12 28 9 21 -4 24 -2 12 6 -8 6 -10 11 -4 11 15 0 73 -30 59 -30 -5
-1 0 -6 12 -13 21 -12 23 -15 23 -37 0 -5 8 -10 18 -10 14 0 15 -2 2 -10 -12
-8 -11 -10 8 -10 12 0 22 -6 22 -13 0 -22 90 -11 114 15 l21 22 12 -39 c11
-36 12 -27 11 88 0 107 -3 127 -14 123 -31 -12 -292 -8 -316 5 -13 7 -36 16
-53 21 -20 5 -7 6 35 3 182 -15 363 -18 356 -7 -5 8 -45 12 -116 12 -105 0
-284 21 -346 40 -40 12 163 3 238 -12 72 -13 237 -6 247 11 16 25 31 -16 41
-110 16 -151 13 -572 -5 -692 -41 -270 -122 -513 -241 -714 -63 -108 -209
-294 -236 -301 -10 -2 -15 -8 -12 -13 3 -5 -2 -9 -11 -9 -8 0 -18 -7 -21 -15
-4 -8 -15 -15 -25 -15 -10 0 -18 -5 -17 -11 2 -7 -11 -18 -29 -25 -28 -12 -32
-12 -27 1 4 9 11 15 18 14 6 -1 18 -1 26 0 12 1 11 4 -3 12 -14 8 -26 4 -57
-21 -22 -18 -40 -34 -40 -37 0 -4 10 2 23 13 21 18 21 18 -2 -8 -15 -17 -29
-24 -40 -20 -14 5 -14 3 -3 -11 16 -19 6 -41 -14 -33 -8 3 -14 1 -14 -3 0 -5
6 -11 13 -14 15 -6 2 -17 -132 -107 -58 -39 -115 -73 -129 -77 -28 -7 -66 13
-203 103 -125 83 -329 282 -329 321 0 8 -4 11 -10 8 -5 -3 -10 -2 -10 4 0 6
-16 25 -35 42 -19 18 -32 36 -29 40 3 5 1 9 -3 9 -16 0 -70 56 -111 117 -23
34 -42 64 -42 67 0 3 -13 27 -29 55 -46 77 -120 271 -151 396 -57 225 -62 269
-69 620 l-7 330 -2 -285 c-2 -390 17 -543 104 -810 132 -407 373 -719 735
-953 103 -66 162 -97 186 -97 42 0 296 171 432 289 138 121 302 345 391 533
85 182 158 436 181 632 14 125 12 799 -3 814 -8 8 -47 12 -108 12 -278 0 -525
45 -772 141 -70 27 -129 49 -130 49 -2 -1 -28 -14 -58 -29z m745 -181 c29 -7
29 -8 4 -9 -15 0 -42 -3 -60 -6 -19 -3 -28 -3 -21 1 6 3 10 10 6 15 -6 10 28
10 71 -1z m-54 -178 c-13 -2 -27 0 -32 5 -6 6 3 7 23 4 28 -4 29 -6 9 -9z
m259 -82 c0 -5 -2 -10 -4 -10 -3 0 -8 5 -11 10 -3 6 -1 10 4 10 6 0 11 -4 11
-10z m-1160 -176 c0 -31 -3 -35 -22 -32 -12 2 -24 10 -26 18 -5 13 -3 13 12 1
9 -8 20 -11 24 -7 4 4 -1 12 -11 17 -21 12 -23 31 -2 23 8 -4 15 -1 15 5 0 6
2 11 5 11 3 0 5 -16 5 -36z m556 9 c-3 -6 0 -13 6 -15 16 -6 0 -28 -20 -28
-15 0 -15 2 -2 10 11 7 6 10 -20 11 -19 0 -30 3 -23 5 7 3 10 11 7 17 -3 8 7
12 26 12 19 0 29 -4 26 -12z m-623 -3 c-13 -5 -23 -14 -23 -20 0 -5 -8 -10
-17 -10 -15 0 -16 2 -3 10 8 5 11 10 5 11 -15 1 27 18 45 18 8 0 5 -4 -7 -9z
m-66 -32 c-3 -8 -6 -5 -6 6 -1 11 2 17 5 13 3 -3 4 -12 1 -19z m73 12 c0 -5
-2 -10 -4 -10 -3 0 -8 5 -11 10 -3 6 -1 10 4 10 6 0 11 -4 11 -10z m-105 -20
c-11 -5 -31 -9 -45 -9 -23 0 -23 1 -5 9 11 5 31 9 45 9 23 0 23 -1 5 -9z m108
-7 c-7 -2 -19 -2 -25 0 -7 3 -2 5 12 5 14 0 19 -2 13 -5z m-66 -37 c0 -6 -14
-12 -30 -13 -22 0 -26 2 -16 9 10 7 8 8 -8 5 -13 -3 -25 -2 -28 2 -2 4 15 8
39 8 26 0 43 -4 43 -11z m-17 -46 c13 -9 13 -10 0 -10 -8 0 -22 5 -30 10 -13
9 -13 10 0 10 8 0 22 -5 30 -10z m0 -80 c0 -5 6 -10 14 -10 8 0 16 -6 19 -14
6 -16 -24 -17 -35 -1 -5 6 -8 5 -8 -2 0 -7 -5 -13 -11 -13 -5 0 -8 4 -5 9 4 5
-2 7 -13 4 -10 -3 -22 0 -25 5 -8 13 30 26 45 16 8 -4 9 -3 5 4 -4 7 -2 12 3
12 6 0 11 -4 11 -10z m780 -4 c0 -2 -7 -6 -15 -10 -8 -3 -15 -1 -15 4 0 6 7
10 15 10 8 0 15 -2 15 -4z m-453 -103 c-2 -32 1 -67 5 -78 9 -20 9 -20 -6 -1
-9 11 -25 20 -36 21 -26 2 -34 11 -27 30 8 19 37 20 37 1 0 -32 15 -22 16 10
3 62 4 74 9 74 2 0 3 -26 2 -57z m-103 -5 c-5 -9 -2 -8 9 1 10 8 20 11 24 7 3
-3 1 -6 -6 -6 -7 0 -9 -4 -6 -10 4 -6 -11 -10 -37 -10 -42 1 -43 1 -18 15 31
18 43 19 34 3z m404 -83 c-3 -3 -9 2 -12 12 -6 14 -5 15 5 6 7 -7 10 -15 7
-18z m-69 -12 c-3 -20 2 -34 10 -29 5 3 14 0 19 -7 9 -10 3 -14 -25 -15 -33
-3 -35 -1 -22 14 12 16 12 17 -3 12 -14 -6 -17 3 -9 30 2 6 31 1 30 -5z m131
-1 c0 -4 -6 -14 -12 -21 -11 -11 -10 -12 1 -6 9 5 12 4 7 -3 -4 -7 -17 -12
-29 -12 -16 0 -19 3 -8 9 7 5 11 13 7 19 -3 6 0 13 6 15 20 8 28 8 28 -1z m17
-14 c-3 -8 -6 -5 -6 6 -1 11 2 17 5 13 3 -3 4 -12 1 -19z m-80 -2 c-8 -21 13
-34 63 -39 l45 -4 -46 -1 c-42 -2 -48 -5 -53 -28 -6 -21 -10 -24 -19 -15 -9 9
-8 14 3 21 10 7 11 10 3 10 -22 0 -28 -5 -25 -19 3 -11 0 -10 -12 2 -20 19
-20 27 -2 27 19 0 43 30 25 31 -10 0 -11 2 -1 6 6 2 10 9 6 14 -3 5 0 9 6 9 7
0 10 -6 7 -14z m143 -1 c-8 -9 -9 -15 -2 -15 6 0 14 5 17 11 5 6 11 4 19 -6
12 -17 72 -22 123 -11 13 3 22 2 22 -2 -3 -21 3 -31 24 -35 12 -2 6 -4 -15 -3
-28 1 -34 4 -26 14 8 10 6 11 -8 5 -10 -3 -22 -11 -26 -17 -5 -7 -8 -4 -8 7 0
9 -5 17 -11 17 -5 0 -7 -4 -4 -10 3 -5 -1 -24 -10 -41 -9 -17 -13 -29 -8 -26
5 3 15 1 23 -5 12 -8 12 -9 -2 -4 -10 3 -18 0 -18 -6 0 -27 -34 24 -35 52 -1
25 2 29 18 24 13 -4 17 -2 13 5 -4 6 -26 11 -49 11 -55 0 -76 13 -58 34 8 9
18 16 23 16 6 0 5 -7 -2 -15z m6 -50 c18 -9 22 -15 13 -15 -17 0 -33 -26 -24
-39 2 -4 -3 -8 -11 -8 -11 0 -14 7 -11 24 4 21 2 24 -19 19 -12 -3 -26 -2 -29
4 -4 6 9 10 32 10 28 0 34 3 23 10 -23 15 -6 12 26 -5z m-859 -17 c-3 -8 -6
-5 -6 6 -1 11 2 17 5 13 3 -3 4 -12 1 -19z m113 8 c0 -3 -4 -8 -10 -11 -5 -3
-10 -1 -10 4 0 6 5 11 10 11 6 0 10 -2 10 -4z m-28 -47 c3 -19 3 -38 -2 -43
-4 -4 -8 -2 -7 5 1 38 -4 49 -24 49 -18 0 -19 2 -9 15 19 23 33 13 42 -26z
m665 16 c0 -8 -4 -15 -9 -15 -10 0 -11 14 -1 23 9 10 10 9 10 -8z m-760 -1
c-3 -3 -12 -4 -19 -1 -8 3 -5 6 6 6 11 1 17 -2 13 -5z m1052 -10 c2 -2 -6 -4
-19 -4 -19 0 -20 -2 -10 -15 10 -12 10 -15 -1 -15 -8 0 -6 -6 7 -16 17 -14 16
-14 -8 0 -17 10 -28 12 -28 6 0 -6 -5 -8 -10 -5 -8 5 -8 11 0 20 8 9 8 15 0
20 -20 12 1 24 33 18 18 -3 34 -7 36 -9z m-909 -4 c0 -5 -4 -10 -10 -10 -5 0
-10 5 -10 10 0 6 5 10 10 10 6 0 10 -4 10 -10z m149 -24 c62 -32 68 -37 64
-61 -6 -27 -23 -45 -23 -23 0 7 -32 30 -71 51 -57 32 -68 41 -58 53 15 18 9
19 88 -20z m562 -59 c-7 -7 -13 -5 -17 8 -5 11 -3 20 4 23 7 2 13 11 13 20 1
10 4 4 6 -12 3 -16 0 -33 -6 -39z m99 37 c0 -2 -7 -4 -15 -4 -8 0 -15 4 -15
10 0 5 7 7 15 4 8 -4 15 -8 15 -10z m127 2 c0 -8 -6 -12 -15 -9 -11 5 -11 7 0
14 7 5 13 9 14 9 0 0 1 -6 1 -14z m173 -1 c10 -12 10 -15 -3 -15 -8 0 -17 7
-21 15 -3 8 -2 15 3 15 5 0 14 -7 21 -15z m-440 -7 c0 -14 -15 -16 -27 -3 -10
11 -9 13 7 12 11 -1 20 -5 20 -9z m125 -18 c-3 -5 -14 -10 -23 -10 -15 0 -15
2 -2 10 20 13 33 13 25 0z m25 -4 c0 -2 -8 -10 -17 -17 -16 -13 -17 -12 -4 4
13 16 21 21 21 13z m200 -6 c8 -5 12 -11 9 -14 -3 -3 -14 1 -25 9 -21 16 -8
20 16 5z m-325 -14 c12 -11 10 -13 -11 -13 -13 0 -24 3 -24 8 0 5 -4 9 -9 9
-6 0 -8 -8 -6 -18 4 -23 -10 -48 -19 -34 -3 6 -2 22 4 36 11 29 43 35 65 12z
m160 4 c3 -6 -1 -7 -9 -4 -18 7 -21 14 -7 14 6 0 13 -4 16 -10z m129 -11 c-3
-5 -10 -7 -15 -3 -5 3 -7 10 -3 15 3 5 10 7 15 3 5 -3 7 -10 3 -15z m-371 5
c3 -4 0 -13 -8 -21 -9 -9 -13 -25 -10 -41 4 -21 3 -23 -3 -7 -8 18 -9 17 -15
-7 -7 -25 -73 -85 -83 -75 -8 8 46 118 55 112 5 -2 17 2 27 10 15 11 16 14 4
15 -13 0 -13 1 0 10 18 11 24 12 33 4z m192 -23 c3 -5 1 -12 -5 -16 -5 -3 -10
1 -10 9 0 18 6 21 15 7z m-33 -26 c3 -13 1 -22 -3 -19 -9 5 -13 44 -5 44 2 0
6 -11 8 -25z m-819 -12 c-7 -2 -19 -2 -25 0 -7 3 -2 5 12 5 14 0 19 -2 13 -5z
m780 -20 c-3 -7 -6 -13 -8 -13 -2 0 -5 6 -8 13 -3 8 1 14 8 14 7 0 11 -6 8
-14z m-536 -8 c0 -8 -4 -12 -9 -9 -5 3 -6 10 -3 15 9 13 12 11 12 -6z m-63
-11 c3 -8 2 -12 -4 -9 -6 3 -10 10 -10 16 0 14 7 11 14 -7z m-74 -4 c0 -5 -2
-10 -4 -10 -3 0 -8 5 -11 10 -3 6 -1 10 4 10 6 0 11 -4 11 -10z m11 -23 c-10
-9 -11 -8 -5 6 3 10 9 15 12 12 3 -3 0 -11 -7 -18z m176 -73 c-3 -3 -12 -4
-19 -1 -8 3 -5 6 6 6 11 1 17 -2 13 -5z m592 -453 c8 -14 7 -22 -7 -32 -14
-11 -15 -11 -5 1 8 9 9 19 2 32 -5 10 -7 18 -5 18 3 0 10 -9 15 -19z m-539
-211 c0 -5 -2 -10 -4 -10 -3 0 -8 5 -11 10 -3 6 -1 10 4 10 6 0 11 -4 11 -10z"/>
<path d="M2300 4330 c-12 -7 -10 -9 8 -7 12 0 22 5 22 9 0 11 -12 10 -30 -2z"/>
<path d="M2180 4285 c-36 -13 -60 -24 -54 -24 13 -1 134 39 134 45 0 7 -12 4
-80 -21z"/>
<path d="M2080 4260 c0 -5 7 -10 16 -10 8 0 12 5 9 10 -3 6 -10 10 -16 10 -5
0 -9 -4 -9 -10z"/>
<path d="M1945 4239 c-58 -13 -156 -22 -275 -26 -128 -5 -173 -9 -145 -14 54
-10 310 6 415 27 47 9 93 16 102 16 10 0 20 3 23 9 8 12 -14 10 -120 -12z"/>
<path d="M3416 4115 c-8 -22 -7 -75 3 -100 6 -14 10 -3 13 40 6 59 -3 92 -16
60z"/>
<path d="M1537 4023 c-4 -3 -6 -45 -5 -92 l1 -86 7 90 c7 96 7 99 -3 88z"/>
<path d="M2860 3820 c0 -11 48 -25 57 -16 4 3 -1 6 -10 6 -9 0 -17 5 -17 10 0
6 -7 10 -15 10 -8 0 -15 -4 -15 -10z"/>
<path d="M2325 3790 c3 -5 -3 -10 -14 -10 -25 0 -28 -15 -5 -24 8 -3 12 -2 9
3 -3 5 4 12 15 16 20 6 19 25 -1 25 -6 0 -7 -4 -4 -10z"/>
<path d="M2880 3759 c0 -4 -7 -15 -16 -24 -9 -9 -13 -19 -9 -23 4 -4 10 -1 12
6 7 20 33 14 43 -10 7 -18 9 -19 9 -5 1 10 9 17 21 17 11 0 20 5 20 10 0 6 5
10 11 10 5 0 7 -4 4 -10 -3 -5 -1 -10 4 -10 6 0 11 5 11 10 0 6 7 10 15 10 8
0 15 -5 15 -10 0 -6 6 -5 14 2 21 19 12 22 -60 20 -38 -1 -63 2 -59 7 3 6 -4
9 -15 8 -11 -1 -20 -4 -20 -8z"/>
<path d="M3168 3723 c7 -3 16 -2 19 1 4 3 -2 6 -13 5 -11 0 -14 -3 -6 -6z"/>
<path d="M2938 3698 c-8 -20 13 -30 33 -16 11 8 11 9 -3 4 -11 -3 -18 1 -20
12 -3 16 -4 16 -10 0z"/>
<path d="M3140 3690 c-9 -6 -10 -10 -3 -10 6 0 15 5 18 10 8 12 4 12 -15 0z"/>
<path d="M3212 3665 c9 -21 8 -28 -7 -45 -21 -23 -56 -23 -63 -1 -3 10 2 12
21 8 19 -5 26 -3 30 13 3 11 1 20 -3 20 -5 0 -16 3 -25 6 -10 4 -15 2 -13 -6
2 -7 -3 -15 -9 -17 -7 -3 -13 0 -13 6 0 6 -4 11 -9 11 -14 0 -6 -50 11 -66 19
-19 58 -19 116 0 25 8 31 47 10 64 -10 8 -13 3 -14 -19 -1 -17 -6 -35 -11 -40
-6 -6 -9 8 -7 41 3 38 0 50 -11 50 -12 0 -12 -5 -3 -25z"/>
<path d="M2897 3649 c7 -7 15 -10 18 -7 3 3 -2 9 -12 12 -14 6 -15 5 -6 -5z"/>
<path d="M2860 3646 c0 -2 7 -7 16 -10 8 -3 12 -2 9 4 -6 10 -25 14 -25 6z"/>
<path d="M2926 3615 c4 -8 8 -15 10 -15 2 0 4 7 4 15 0 8 -4 15 -10 15 -5 0
-7 -7 -4 -15z"/>
<path d="M3070 3615 c0 -8 -4 -14 -9 -12 -5 1 -9 -1 -10 -5 -1 -5 1 -8 4 -8 3
0 9 0 14 0 5 0 11 9 14 20 3 11 1 20 -4 20 -5 0 -9 -7 -9 -15z"/>
<path d="M2326 3602 c-4 -7 -4 -12 0 -12 3 0 -1 -11 -9 -24 -15 -23 -13 -36 5
-36 5 0 8 6 7 13 -1 6 1 20 5 29 10 22 3 48 -8 30z"/>
<path d="M3005 3590 c-3 -5 -1 -10 4 -10 6 0 11 5 11 10 0 6 -2 10 -4 10 -3 0
-8 -4 -11 -10z"/>
<path d="M3090 3594 c0 -19 28 -36 52 -31 21 4 20 4 -4 6 -15 0 -32 9 -37 19
-6 9 -11 12 -11 6z"/>
<path d="M3024 3559 c-3 -5 14 -9 37 -9 23 0 39 3 35 7 -11 11 -65 12 -72 2z"/>
<path d="M2305 3510 c-3 -5 -3 -10 2 -10 4 0 1 -5 -7 -10 -13 -8 -12 -10 3
-10 10 0 17 8 17 20 0 22 -5 26 -15 10z"/>
<path d="M2500 3510 c0 -5 5 -10 10 -10 6 0 10 5 10 10 0 6 -4 10 -10 10 -5 0
-10 -4 -10 -10z"/>
<path d="M2410 3495 c0 -8 2 -15 4 -15 2 0 6 7 10 15 3 8 1 15 -4 15 -6 0 -10
-7 -10 -15z"/>
<path d="M2614 3443 c0 -21 -4 -46 -8 -55 -6 -13 -4 -18 7 -18 8 0 14 8 13 18
0 9 6 17 14 17 8 0 22 5 30 10 8 5 28 8 45 8 18 -1 22 1 10 4 -11 3 -25 13
-32 22 -11 13 -13 13 -11 1 2 -9 -3 -14 -14 -12 -13 2 -16 -2 -11 -14 4 -11 3
-15 -5 -11 -6 4 -13 21 -17 37 -9 42 -21 37 -21 -7z"/>
<path d="M1540 3419 c0 -5 5 -7 10 -4 6 3 10 8 10 11 0 2 -4 4 -10 4 -5 0 -10
-5 -10 -11z"/>
<path d="M1558 3380 c-7 -24 -3 -38 8 -28 3 4 4 17 2 30 l-3 23 -7 -25z"/>
<path d="M2841 3374 c0 -11 3 -14 6 -6 3 7 2 16 -1 19 -3 4 -6 -2 -5 -13z"/>
<path d="M2900 3349 c0 -5 4 -8 9 -5 5 4 11 0 14 -6 2 -7 8 -9 13 -5 5 4 2 12
-6 17 -20 13 -30 12 -30 -1z"/>
<path d="M1564 3319 c-3 -6 -1 -16 5 -22 8 -8 11 -5 11 11 0 24 -5 28 -16 11z"/>
<path d="M3283 3188 c-2 -29 -1 -30 14 -16 8 9 13 24 10 32 -10 26 -22 18 -24
-16z"/>
<path d="M2887 2322 c-20 -21 -22 -32 -6 -32 5 0 7 5 3 12 -5 7 -2 9 7 6 10
-4 15 1 15 13 0 23 1 23 -19 1z"/>
<path d="M2110 2261 c0 -5 7 -12 16 -15 14 -5 15 -4 4 9 -14 17 -20 19 -20 6z"/>
<path d="M2730 2186 c0 -2 7 -7 16 -10 8 -3 12 -2 9 4 -6 10 -25 14 -25 6z"/>
</g>
</svg>
